<svg width="20" height="21" viewBox="0 0 20 21" fill="none" xmlns="http://www.w3.org/2000/svg">
<path fill-rule="evenodd" clip-rule="evenodd" d="M2 0.992798H18C19.1046 0.992798 20 1.88502 20 2.98564V18.9283C20 20.029 19.1046 20.9212 18 20.9212H2C0.89543 20.9212 0 20.029 0 18.9283V2.98564C0 1.88502 0.89543 0.992798 2 0.992798ZM2 2.98564V18.9283H18V2.98564H2ZM9.13306 10.9614H11V16.9355H13V10.9614H14.9824V8.96853H13V7.96773C13 7.41743 13.4477 6.97132 14 6.97132H15V4.97848H14C12.3431 4.97848 11 6.31681 11 7.96773V8.96853H9.13306V10.9614Z" fill="black"/>
</svg>
