<svg width="21" height="20" viewBox="0 0 21 20" fill="none" xmlns="http://www.w3.org/2000/svg">
<path fill-rule="evenodd" clip-rule="evenodd" d="M19.1195 3.49209L20.5343 3.65672L19.8983 4.92666C19.5882 5.54596 19.2778 6.16526 18.967 6.78456C18.9302 6.91573 18.8654 7.03072 18.7697 7.18043C18.7296 7.24299 18.5929 7.44198 18.5865 7.45153C18.5504 7.50548 18.5237 7.54802 18.5045 7.5821V9.96209C18.5045 16.0522 12.5895 19.9222 7.00354 19.9222C5.86051 19.9222 4.99207 19.8676 3.99765 19.6514C2.36115 19.2956 1.14327 18.5882 0.585973 17.352L0.0122107 16.0793L1.40659 15.9515C2.66801 15.8359 3.76169 15.5964 4.60159 15.2758C2.29577 14.9063 1.0036 13.8972 1.0036 12.0021V11.0057H2.0036C2.22331 11.0057 2.42143 10.9879 2.59854 10.9553C0.868001 9.92435 0.00122175 8.27043 0.00122175 5.97641C0.00103266 5.87863 0.00103266 5.87863 0.000442551 5.77409C-0.00605857 4.6178 0.0562722 3.99996 0.373948 3.21142C0.577543 2.70605 0.871831 2.23821 1.2679 1.80953L2.02251 0.992798L2.75617 1.82826C5.17394 4.58151 7.56395 6.25185 10.0042 6.45389C10.0146 3.91335 11.9415 1.99073 14.5043 1.99073C15.6991 1.99073 16.7828 2.4426 17.6345 3.25739C18.1006 3.35283 18.5957 3.43113 19.1195 3.49209ZM16.9086 5.13992L16.6021 5.07075L16.3904 4.83926C15.8785 4.27954 15.2359 3.98358 14.5043 3.98358C13.0414 3.98358 12.0041 5.02223 12.0041 6.47463C12.0041 6.71199 11.998 6.86114 11.9683 7.05716C11.8499 7.83937 11.4096 8.46747 10.5041 8.46747C7.50607 8.46747 4.80136 6.86711 2.16389 4.1338C2.02792 4.54565 1.99595 4.96899 2.00041 5.76293C2.00101 5.86912 2.00101 5.86912 2.00122 5.97642C2.00122 8.01709 2.83093 9.13332 4.79546 9.7555L5.49255 9.97627V10.7051C5.49255 11.5889 4.65222 12.4209 3.42268 12.7935C3.98631 13.2196 5.139 13.4496 7.00389 13.4496H8.00389V14.446C8.00389 15.8736 6.35762 16.9914 3.87075 17.5751C4.68178 17.8227 5.76166 17.9294 7.00354 17.9294C11.618 17.9294 16.5045 14.7322 16.5045 9.9621V7.47105C16.5045 7.17832 16.5897 6.92422 16.7311 6.66003C16.7865 6.55674 16.8474 6.45826 16.9225 6.34594C16.9367 6.3248 16.9892 6.24818 17.0309 6.18693L17.1101 6.029C17.2386 5.77308 17.3669 5.51716 17.4952 5.26124C17.2958 5.2236 17.1003 5.18316 16.9086 5.13992Z" fill="black"/>
</svg>
